<svg xmlns="http://www.w3.org/2000/svg" viewBox="-96.600 -110.000 193.200 220.000"><title>iso-cubeviz</title><desc>Isometric view of a 5x5x5 Rubik's cube</desc><polygon points="0.000,-100.000 17.320,-90.000 0.000,-80.000 -17.320,-90.000" fill="#808080" stroke="#222222" stroke-width="1" stroke-linejoin="round"/><polygon points="17.320,-90.000 34.640,-80.000 17.320,-70.000 0.000,-80.000" fill="#1A1A1A" stroke="#222222" stroke-width="1" stroke-linejoin="round"/><polygon points="34.640,-80.000 51.960,-70.000 34.640,-60.000 17.320,-70.000" fill="#808080" stroke="#222222" stroke-width="1" stroke-linejoin="round"/><polygon points="51.960,-70.000 69.280,-60.000 51.960,-50.000 34.640,-60.000" fill="#1A1A1A" stroke="#222222" stroke-width="1" stroke-linejoin="round"/><polygon points="69.280,-60.000 86.600,-50.000 69.280,-40.000 51.960,-50.000" fill="#808080" stroke="#222222" stroke-width="1" stroke-linejoin="round"/><polygon points="-17.320,-90.000 0.000,-80.000 -17.320,-70.000 -34.640,-80.000" fill="#808080" stroke="#222222" stroke-width="1" stroke-linejoin="round"/><polygon points="0.000,-80.000 17.320,-70.000 0.000,-60.000 -17.320,-70.000" fill="#808080" stroke="#222222" stroke-width="1" stroke-linejoin="round"/><polygon points="17.320,-70.000 34.640,-60.000 17.320,-50.000 0.000,-60.000" fill="#808080" stroke="#222222" stroke-width="1" stroke-linejoin="round"/><polygon points="34.640,-60.000 51.960,-50.000 34.640,-40.000 17.320,-50.000" fill="#808080" stroke="#222222" stroke-width="1" stroke-linejoin="round"/><polygon points="51.960,-50.000 69.280,-40.000 51.960,-30.000 34.640,-40.000" fill="#808080" stroke="#222222" stroke-width="1" stroke-linejoin="round"/><polygon points="-34.640,-80.000 -17.320,-70.000 -34.640,-60.000 -51.960,-70.000" fill="#808080" stroke="#222222" stroke-width="1" stroke-linejoin="round"/><polygon points="-17.320,-70.000 0.000,-60.000 -17.320,-50.000 -34.640,-60.000" fill="#808080" stroke="#222222" stroke-width="1" stroke-linejoin="round"/><polygon points="0.000,-60.000 17.320,-50.000 0.000,-40.000 -17.320,-50.000" fill="#808080" stroke="#222222" stroke-width="1" stroke-linejoin="round"/><polygon points="17.320,-50.000 34.640,-40.000 17.320,-30.000 0.000,-40.000" fill="#808080" stroke="#222222" stroke-width="1" stroke-linejoin="round"/><polygon points="34.640,-40.000 51.960,-30.000 34.640,-20.000 17.320,-30.000" fill="#808080" stroke="#222222" stroke-width="1" stroke-linejoin="round"/><polygon points="-51.960,-70.000 -34.640,-60.000 -51.960,-50.000 -69.280,-60.000" fill="#808080" stroke="#222222" stroke-width="1" stroke-linejoin="round"/><polygon points="-34.640,-60.000 -17.320,-50.000 -34.640,-40.000 -51.960,-50.000" fill="#808080" stroke="#222222" stroke-width="1" stroke-linejoin="round"/><polygon points="-17.320,-50.000 0.000,-40.000 -17.320,-30.000 -34.640,-40.000" fill="#808080" stroke="#222222" stroke-width="1" stroke-linejoin="round"/><polygon points="0.000,-40.000 17.320,-30.000 0.000,-20.000 -17.320,-30.000" fill="#808080" stroke="#222222" stroke-width="1" stroke-linejoin="round"/><polygon points="17.320,-30.000 34.640,-20.000 17.320,-10.000 0.000,-20.000" fill="#808080" stroke="#222222" stroke-width="1" stroke-linejoin="round"/><polygon points="-69.280,-60.000 -51.960,-50.000 -69.280,-40.000 -86.600,-50.000" fill="#808080" stroke="#222222" stroke-width="1" stroke-linejoin="round"/><polygon points="-51.960,-50.000 -34.640,-40.000 -51.960,-30.000 -69.280,-40.000" fill="#1A1A1A" stroke="#222222" stroke-width="1" stroke-linejoin="round"/><polygon points="-34.640,-40.000 -17.320,-30.000 -34.640,-20.000 -51.960,-30.000" fill="#808080" stroke="#222222" stroke-width="1" stroke-linejoin="round"/><polygon points="-17.320,-30.000 0.000,-20.000 -17.320,-10.000 -34.640,-20.000" fill="#1A1A1A" stroke="#222222" stroke-width="1" stroke-linejoin="round"/><polygon points="0.000,-20.000 17.320,-10.000 0.000,0.000 -17.320,-10.000" fill="#808080" stroke="#222222" stroke-width="1" stroke-linejoin="round"/><polygon points="-86.600,-50.000 -69.280,-40.000 -69.280,-20.000 -86.600,-30.000" fill="#808080" stroke="#222222" stroke-width="1" stroke-linejoin="round"/><polygon points="-69.280,-40.000 -51.960,-30.000 -51.960,-10.000 -69.280,-20.000" fill="#1A1A1A" stroke="#222222" stroke-width="1" stroke-linejoin="round"/><polygon points="-51.960,-30.000 -34.640,-20.000 -34.640,0.000 -51.960,-10.000" fill="#808080" stroke="#222222" stroke-width="1" stroke-linejoin="round"/><polygon points="-34.640,-20.000 -17.320,-10.000 -17.320,10.000 -34.640,0.000" fill="#1A1A1A" stroke="#222222" stroke-width="1" stroke-linejoin="round"/><polygon points="-17.320,-10.000 0.000,0.000 0.000,20.000 -17.320,10.000" fill="#808080" stroke="#222222" stroke-width="1" stroke-linejoin="round"/><polygon points="-86.600,-30.000 -69.280,-20.000 -69.280,0.000 -86.600,-10.000" fill="#808080" stroke="#222222" stroke-width="1" stroke-linejoin="round"/><polygon points="-69.280,-20.000 -51.960,-10.000 -51.960,10.000 -69.280,0.000" fill="#808080" stroke="#222222" stroke-width="1" stroke-linejoin="round"/><polygon points="-51.960,-10.000 -34.640,0.000 -34.640,20.000 -51.960,10.000" fill="#808080" stroke="#222222" stroke-width="1" stroke-linejoin="round"/><polygon points="-34.640,0.000 -17.320,10.000 -17.320,30.000 -34.640,20.000" fill="#808080" stroke="#222222" stroke-width="1" stroke-linejoin="round"/><polygon points="-17.320,10.000 0.000,20.000 0.000,40.000 -17.320,30.000" fill="#808080" stroke="#222222" stroke-width="1" stroke-linejoin="round"/><polygon points="-86.600,-10.000 -69.280,0.000 -69.280,20.000 -86.600,10.000" fill="#808080" stroke="#222222" stroke-width="1" stroke-linejoin="round"/><polygon points="-69.280,0.000 -51.960,10.000 -51.960,30.000 -69.280,20.000" fill="#808080" stroke="#222222" stroke-width="1" stroke-linejoin="round"/><polygon points="-51.960,10.000 -34.640,20.000 -34.640,40.000 -51.960,30.000" fill="#808080" stroke="#222222" stroke-width="1" stroke-linejoin="round"/><polygon points="-34.640,20.000 -17.320,30.000 -17.320,50.000 -34.640,40.000" fill="#808080" stroke="#222222" stroke-width="1" stroke-linejoin="round"/><polygon points="-17.320,30.000 0.000,40.000 0.000,60.000 -17.320,50.000" fill="#808080" stroke="#222222" stroke-width="1" stroke-linejoin="round"/><polygon points="-86.600,10.000 -69.280,20.000 -69.280,40.000 -86.600,30.000" fill="#808080" stroke="#222222" stroke-width="1" stroke-linejoin="round"/><polygon points="-69.280,20.000 -51.960,30.000 -51.960,50.000 -69.280,40.000" fill="#808080" stroke="#222222" stroke-width="1" stroke-linejoin="round"/><polygon points="-51.960,30.000 -34.640,40.000 -34.640,60.000 -51.960,50.000" fill="#808080" stroke="#222222" stroke-width="1" stroke-linejoin="round"/><polygon points="-34.640,40.000 -17.320,50.000 -17.320,70.000 -34.640,60.000" fill="#808080" stroke="#222222" stroke-width="1" stroke-linejoin="round"/><polygon points="-17.320,50.000 0.000,60.000 0.000,80.000 -17.320,70.000" fill="#808080" stroke="#222222" stroke-width="1" stroke-linejoin="round"/><polygon points="-86.600,30.000 -69.280,40.000 -69.280,60.000 -86.600,50.000" fill="#808080" stroke="#222222" stroke-width="1" stroke-linejoin="round"/><polygon points="-69.280,40.000 -51.960,50.000 -51.960,70.000 -69.280,60.000" fill="#808080" stroke="#222222" stroke-width="1" stroke-linejoin="round"/><polygon points="-51.960,50.000 -34.640,60.000 -34.640,80.000 -51.960,70.000" fill="#808080" stroke="#222222" stroke-width="1" stroke-linejoin="round"/><polygon points="-34.640,60.000 -17.320,70.000 -17.320,90.000 -34.640,80.000" fill="#808080" stroke="#222222" stroke-width="1" stroke-linejoin="round"/><polygon points="-17.320,70.000 0.000,80.000 0.000,100.000 -17.320,90.000" fill="#808080" stroke="#222222" stroke-width="1" stroke-linejoin="round"/><polygon points="17.320,-10.000 0.000,0.000 0.000,20.000 17.320,10.000" fill="#808080" stroke="#222222" stroke-width="1" stroke-linejoin="round"/><polygon points="34.640,-20.000 17.320,-10.000 17.320,10.000 34.640,0.000" fill="#808080" stroke="#222222" stroke-width="1" stroke-linejoin="round"/><polygon points="51.960,-30.000 34.640,-20.000 34.640,0.000 51.960,-10.000" fill="#808080" stroke="#222222" stroke-width="1" stroke-linejoin="round"/><polygon points="69.280,-40.000 51.960,-30.000 51.960,-10.000 69.280,-20.000" fill="#808080" stroke="#222222" stroke-width="1" stroke-linejoin="round"/><polygon points="86.600,-50.000 69.280,-40.000 69.280,-20.000 86.600,-30.000" fill="#808080" stroke="#222222" stroke-width="1" stroke-linejoin="round"/><polygon points="17.320,10.000 0.000,20.000 0.000,40.000 17.320,30.000" fill="#808080" stroke="#222222" stroke-width="1" stroke-linejoin="round"/><polygon points="34.640,0.000 17.320,10.000 17.320,30.000 34.640,20.000" fill="#808080" stroke="#222222" stroke-width="1" stroke-linejoin="round"/><polygon points="51.960,-10.000 34.640,0.000 34.640,20.000 51.960,10.000" fill="#808080" stroke="#222222" stroke-width="1" stroke-linejoin="round"/><polygon points="69.280,-20.000 51.960,-10.000 51.960,10.000 69.280,0.000" fill="#808080" stroke="#222222" stroke-width="1" stroke-linejoin="round"/><polygon points="86.600,-30.000 69.280,-20.000 69.280,0.000 86.600,-10.000" fill="#808080" stroke="#222222" stroke-width="1" stroke-linejoin="round"/><polygon points="17.320,30.000 0.000,40.000 0.000,60.000 17.320,50.000" fill="#808080" stroke="#222222" stroke-width="1" stroke-linejoin="round"/><polygon points="34.640,20.000 17.320,30.000 17.320,50.000 34.640,40.000" fill="#808080" stroke="#222222" stroke-width="1" stroke-linejoin="round"/><polygon points="51.960,10.000 34.640,20.000 34.640,40.000 51.960,30.000" fill="#808080" stroke="#222222" stroke-width="1" stroke-linejoin="round"/><polygon points="69.280,0.000 51.960,10.000 51.960,30.000 69.280,20.000" fill="#808080" stroke="#222222" stroke-width="1" stroke-linejoin="round"/><polygon points="86.600,-10.000 69.280,0.000 69.280,20.000 86.600,10.000" fill="#808080" stroke="#222222" stroke-width="1" stroke-linejoin="round"/><polygon points="17.320,50.000 0.000,60.000 0.000,80.000 17.320,70.000" fill="#808080" stroke="#222222" stroke-width="1" stroke-linejoin="round"/><polygon points="34.640,40.000 17.320,50.000 17.320,70.000 34.640,60.000" fill="#808080" stroke="#222222" stroke-width="1" stroke-linejoin="round"/><polygon points="51.960,30.000 34.640,40.000 34.640,60.000 51.960,50.000" fill="#808080" stroke="#222222" stroke-width="1" stroke-linejoin="round"/><polygon points="69.280,20.000 51.960,30.000 51.960,50.000 69.280,40.000" fill="#808080" stroke="#222222" stroke-width="1" stroke-linejoin="round"/><polygon points="86.600,10.000 69.280,20.000 69.280,40.000 86.600,30.000" fill="#808080" stroke="#222222" stroke-width="1" stroke-linejoin="round"/><polygon points="17.320,70.000 0.000,80.000 0.000,100.000 17.320,90.000" fill="#808080" stroke="#222222" stroke-width="1" stroke-linejoin="round"/><polygon points="34.640,60.000 17.320,70.000 17.320,90.000 34.640,80.000" fill="#808080" stroke="#222222" stroke-width="1" stroke-linejoin="round"/><polygon points="51.960,50.000 34.640,60.000 34.640,80.000 51.960,70.000" fill="#808080" stroke="#222222" stroke-width="1" stroke-linejoin="round"/><polygon points="69.280,40.000 51.960,50.000 51.960,70.000 69.280,60.000" fill="#808080" stroke="#222222" stroke-width="1" stroke-linejoin="round"/><polygon points="86.600,30.000 69.280,40.000 69.280,60.000 86.600,50.000" fill="#808080" stroke="#222222" stroke-width="1" stroke-linejoin="round"/></svg>