<svg xmlns="http://www.w3.org/2000/svg" viewBox="-70.620 -150.000 220.620 209.000"><title>iso-cubeviz</title><desc>Isometric view of a 7x7x7 Rubik's cube</desc><polygon points="0.000,-140.000 20.000,-140.000 11.340,-133.000 -8.660,-133.000" fill="#808080" stroke="#222222" stroke-width="1" stroke-linejoin="round"/><polygon points="20.000,-140.000 40.000,-140.000 31.340,-133.000 11.340,-133.000" fill="#808080" stroke="#222222" stroke-width="1" stroke-linejoin="round"/><polygon points="40.000,-140.000 60.000,-140.000 51.340,-133.000 31.340,-133.000" fill="#0046AD" stroke="#222222" stroke-width="1" stroke-linejoin="round"/><polygon points="60.000,-140.000 80.000,-140.000 71.340,-133.000 51.340,-133.000" fill="#0046AD" stroke="#222222" stroke-width="1" stroke-linejoin="round"/><polygon points="80.000,-140.000 100.000,-140.000 91.340,-133.000 71.340,-133.000" fill="#0046AD" stroke="#222222" stroke-width="1" stroke-linejoin="round"/><polygon points="100.000,-140.000 120.000,-140.000 111.340,-133.000 91.340,-133.000" fill="#808080" stroke="#222222" stroke-width="1" stroke-linejoin="round"/><polygon points="120.000,-140.000 140.000,-140.000 131.340,-133.000 111.340,-133.000" fill="#808080" stroke="#222222" stroke-width="1" stroke-linejoin="round"/><polygon points="-8.660,-133.000 11.340,-133.000 2.680,-126.000 -17.320,-126.000" fill="#808080" stroke="#222222" stroke-width="1" stroke-linejoin="round"/><polygon points="11.340,-133.000 31.340,-133.000 22.680,-126.000 2.680,-126.000" fill="#808080" stroke="#222222" stroke-width="1" stroke-linejoin="round"/><polygon points="31.340,-133.000 51.340,-133.000 42.680,-126.000 22.680,-126.000" fill="#808080" stroke="#222222" stroke-width="1" stroke-linejoin="round"/><polygon points="51.340,-133.000 71.340,-133.000 62.680,-126.000 42.680,-126.000" fill="#808080" stroke="#222222" stroke-width="1" stroke-linejoin="round"/><polygon points="71.340,-133.000 91.340,-133.000 82.680,-126.000 62.680,-126.000" fill="#808080" stroke="#222222" stroke-width="1" stroke-linejoin="round"/><polygon points="91.340,-133.000 111.340,-133.000 102.680,-126.000 82.680,-126.000" fill="#808080" stroke="#222222" stroke-width="1" stroke-linejoin="round"/><polygon points="111.340,-133.000 131.340,-133.000 122.680,-126.000 102.680,-126.000" fill="#808080" stroke="#222222" stroke-width="1" stroke-linejoin="round"/><polygon points="-17.320,-126.000 2.680,-126.000 -5.980,-119.000 -25.980,-119.000" fill="#808080" stroke="#222222" stroke-width="1" stroke-linejoin="round"/><polygon points="2.680,-126.000 22.680,-126.000 14.020,-119.000 -5.980,-119.000" fill="#808080" stroke="#222222" stroke-width="1" stroke-linejoin="round"/><polygon points="22.680,-126.000 42.680,-126.000 34.020,-119.000 14.020,-119.000" fill="#808080" stroke="#222222" stroke-width="1" stroke-linejoin="round"/><polygon points="42.680,-126.000 62.680,-126.000 54.020,-119.000 34.020,-119.000" fill="#808080" stroke="#222222" stroke-width="1" stroke-linejoin="round"/><polygon points="62.680,-126.000 82.680,-126.000 74.020,-119.000 54.020,-119.000" fill="#808080" stroke="#222222" stroke-width="1" stroke-linejoin="round"/><polygon points="82.680,-126.000 102.680,-126.000 94.020,-119.000 74.020,-119.000" fill="#808080" stroke="#222222" stroke-width="1" stroke-linejoin="round"/><polygon points="102.680,-126.000 122.680,-126.000 114.020,-119.000 94.020,-119.000" fill="#1A1A1A" stroke="#222222" stroke-width="1" stroke-linejoin="round"/><polygon points="-25.980,-119.000 -5.980,-119.000 -14.640,-112.000 -34.640,-112.000" fill="#808080" stroke="#222222" stroke-width="1" stroke-linejoin="round"/><polygon points="-5.980,-119.000 14.020,-119.000 5.360,-112.000 -14.640,-112.000" fill="#808080" stroke="#222222" stroke-width="1" stroke-linejoin="round"/><polygon points="14.020,-119.000 34.020,-119.000 25.360,-112.000 5.360,-112.000" fill="#808080" stroke="#222222" stroke-width="1" stroke-linejoin="round"/><polygon points="34.020,-119.000 54.020,-119.000 45.360,-112.000 25.360,-112.000" fill="#808080" stroke="#222222" stroke-width="1" stroke-linejoin="round"/><polygon points="54.020,-119.000 74.020,-119.000 65.360,-112.000 45.360,-112.000" fill="#808080" stroke="#222222" stroke-width="1" stroke-linejoin="round"/><polygon points="74.020,-119.000 94.020,-119.000 85.360,-112.000 65.360,-112.000" fill="#808080" stroke="#222222" stroke-width="1" stroke-linejoin="round"/><polygon points="94.020,-119.000 114.020,-119.000 105.360,-112.000 85.360,-112.000" fill="#808080" stroke="#222222" stroke-width="1" stroke-linejoin="round"/><polygon points="-34.640,-112.000 -14.640,-112.000 -23.300,-105.000 -43.300,-105.000" fill="#808080" stroke="#222222" stroke-width="1" stroke-linejoin="round"/><polygon points="-14.640,-112.000 5.360,-112.000 -3.300,-105.000 -23.300,-105.000" fill="#808080" stroke="#222222" stroke-width="1" stroke-linejoin="round"/><polygon points="5.360,-112.000 25.360,-112.000 16.700,-105.000 -3.300,-105.000" fill="#808080" stroke="#222222" stroke-width="1" stroke-linejoin="round"/><polygon points="25.360,-112.000 45.360,-112.000 36.700,-105.000 16.700,-105.000" fill="#808080" stroke="#222222" stroke-width="1" stroke-linejoin="round"/><polygon points="45.360,-112.000 65.360,-112.000 56.700,-105.000 36.700,-105.000" fill="#808080" stroke="#222222" stroke-width="1" stroke-linejoin="round"/><polygon points="65.360,-112.000 85.360,-112.000 76.700,-105.000 56.700,-105.000" fill="#808080" stroke="#222222" stroke-width="1" stroke-linejoin="round"/><polygon points="85.360,-112.000 105.360,-112.000 96.700,-105.000 76.700,-105.000" fill="#1A1A1A" stroke="#222222" stroke-width="1" stroke-linejoin="round"/><polygon points="-43.300,-105.000 -23.300,-105.000 -31.960,-98.000 -51.960,-98.000" fill="#808080" stroke="#222222" stroke-width="1" stroke-linejoin="round"/><polygon points="-23.300,-105.000 -3.300,-105.000 -11.960,-98.000 -31.960,-98.000" fill="#808080" stroke="#222222" stroke-width="1" stroke-linejoin="round"/><polygon points="-3.300,-105.000 16.700,-105.000 8.040,-98.000 -11.960,-98.000" fill="#808080" stroke="#222222" stroke-width="1" stroke-linejoin="round"/><polygon points="16.700,-105.000 36.700,-105.000 28.040,-98.000 8.040,-98.000" fill="#808080" stroke="#222222" stroke-width="1" stroke-linejoin="round"/><polygon points="36.700,-105.000 56.700,-105.000 48.040,-98.000 28.040,-98.000" fill="#808080" stroke="#222222" stroke-width="1" stroke-linejoin="round"/><polygon points="56.700,-105.000 76.700,-105.000 68.040,-98.000 48.040,-98.000" fill="#808080" stroke="#222222" stroke-width="1" stroke-linejoin="round"/><polygon points="76.700,-105.000 96.700,-105.000 88.040,-98.000 68.040,-98.000" fill="#808080" stroke="#222222" stroke-width="1" stroke-linejoin="round"/><polygon points="-51.960,-98.000 -31.960,-98.000 -40.620,-91.000 -60.620,-91.000" fill="#808080" stroke="#222222" stroke-width="1" stroke-linejoin="round"/><polygon points="-31.960,-98.000 -11.960,-98.000 -20.620,-91.000 -40.620,-91.000" fill="#808080" stroke="#222222" stroke-width="1" stroke-linejoin="round"/><polygon points="-11.960,-98.000 8.040,-98.000 -0.620,-91.000 -20.620,-91.000" fill="#808080" stroke="#222222" stroke-width="1" stroke-linejoin="round"/><polygon points="8.040,-98.000 28.040,-98.000 19.380,-91.000 -0.620,-91.000" fill="#808080" stroke="#222222" stroke-width="1" stroke-linejoin="round"/><polygon points="28.040,-98.000 48.040,-98.000 39.380,-91.000 19.380,-91.000" fill="#808080" stroke="#222222" stroke-width="1" stroke-linejoin="round"/><polygon points="48.040,-98.000 68.040,-98.000 59.380,-91.000 39.380,-91.000" fill="#808080" stroke="#222222" stroke-width="1" stroke-linejoin="round"/><polygon points="68.040,-98.000 88.040,-98.000 79.380,-91.000 59.380,-91.000" fill="#808080" stroke="#222222" stroke-width="1" stroke-linejoin="round"/><polygon points="-60.620,-91.000 -40.620,-91.000 -40.620,-71.000 -60.620,-71.000" fill="#808080" stroke="#222222" stroke-width="1" stroke-linejoin="round"/><polygon points="-40.620,-91.000 -20.620,-91.000 -20.620,-71.000 -40.620,-71.000" fill="#808080" stroke="#222222" stroke-width="1" stroke-linejoin="round"/><polygon points="-20.620,-91.000 -0.620,-91.000 -0.620,-71.000 -20.620,-71.000" fill="#808080" stroke="#222222" stroke-width="1" stroke-linejoin="round"/><polygon points="-0.620,-91.000 19.380,-91.000 19.380,-71.000 -0.620,-71.000" fill="#808080" stroke="#222222" stroke-width="1" stroke-linejoin="round"/><polygon points="19.380,-91.000 39.380,-91.000 39.380,-71.000 19.380,-71.000" fill="#808080" stroke="#222222" stroke-width="1" stroke-linejoin="round"/><polygon points="39.380,-91.000 59.380,-91.000 59.380,-71.000 39.380,-71.000" fill="#808080" stroke="#222222" stroke-width="1" stroke-linejoin="round"/><polygon points="59.380,-91.000 79.380,-91.000 79.380,-71.000 59.380,-71.000" fill="#808080" stroke="#222222" stroke-width="1" stroke-linejoin="round"/><polygon points="-60.620,-71.000 -40.620,-71.000 -40.620,-51.000 -60.620,-51.000" fill="#808080" stroke="#222222" stroke-width="1" stroke-linejoin="round"/><polygon points="-40.620,-71.000 -20.620,-71.000 -20.620,-51.000 -40.620,-51.000" fill="#808080" stroke="#222222" stroke-width="1" stroke-linejoin="round"/><polygon points="-20.620,-71.000 -0.620,-71.000 -0.620,-51.000 -20.620,-51.000" fill="#808080" stroke="#222222" stroke-width="1" stroke-linejoin="round"/><polygon points="-0.620,-71.000 19.380,-71.000 19.380,-51.000 -0.620,-51.000" fill="#808080" stroke="#222222" stroke-width="1" stroke-linejoin="round"/><polygon points="19.380,-71.000 39.380,-71.000 39.380,-51.000 19.380,-51.000" fill="#808080" stroke="#222222" stroke-width="1" stroke-linejoin="round"/><polygon points="39.380,-71.000 59.380,-71.000 59.380,-51.000 39.380,-51.000" fill="#808080" stroke="#222222" stroke-width="1" stroke-linejoin="round"/><polygon points="59.380,-71.000 79.380,-71.000 79.380,-51.000 59.380,-51.000" fill="#808080" stroke="#222222" stroke-width="1" stroke-linejoin="round"/><polygon points="-60.620,-51.000 -40.620,-51.000 -40.620,-31.000 -60.620,-31.000" fill="#808080" stroke="#222222" stroke-width="1" stroke-linejoin="round"/><polygon points="-40.620,-51.000 -20.620,-51.000 -20.620,-31.000 -40.620,-31.000" fill="#808080" stroke="#222222" stroke-width="1" stroke-linejoin="round"/><polygon points="-20.620,-51.000 -0.620,-51.000 -0.620,-31.000 -20.620,-31.000" fill="#808080" stroke="#222222" stroke-width="1" stroke-linejoin="round"/><polygon points="-0.620,-51.000 19.380,-51.000 19.380,-31.000 -0.620,-31.000" fill="#808080" stroke="#222222" stroke-width="1" stroke-linejoin="round"/><polygon points="19.380,-51.000 39.380,-51.000 39.380,-31.000 19.380,-31.000" fill="#808080" stroke="#222222" stroke-width="1" stroke-linejoin="round"/><polygon points="39.380,-51.000 59.380,-51.000 59.380,-31.000 39.380,-31.000" fill="#808080" stroke="#222222" stroke-width="1" stroke-linejoin="round"/><polygon points="59.380,-51.000 79.380,-51.000 79.380,-31.000 59.380,-31.000" fill="#808080" stroke="#222222" stroke-width="1" stroke-linejoin="round"/><polygon points="-60.620,-31.000 -40.620,-31.000 -40.620,-11.000 -60.620,-11.000" fill="#808080" stroke="#222222" stroke-width="1" stroke-linejoin="round"/><polygon points="-40.620,-31.000 -20.620,-31.000 -20.620,-11.000 -40.620,-11.000" fill="#808080" stroke="#222222" stroke-width="1" stroke-linejoin="round"/><polygon points="-20.620,-31.000 -0.620,-31.000 -0.620,-11.000 -20.620,-11.000" fill="#808080" stroke="#222222" stroke-width="1" stroke-linejoin="round"/><polygon points="-0.620,-31.000 19.380,-31.000 19.380,-11.000 -0.620,-11.000" fill="#808080" stroke="#222222" stroke-width="1" stroke-linejoin="round"/><polygon points="19.380,-31.000 39.380,-31.000 39.380,-11.000 19.380,-11.000" fill="#808080" stroke="#222222" stroke-width="1" stroke-linejoin="round"/><polygon points="39.380,-31.000 59.380,-31.000 59.380,-11.000 39.380,-11.000" fill="#808080" stroke="#222222" stroke-width="1" stroke-linejoin="round"/><polygon points="59.380,-31.000 79.380,-31.000 79.380,-11.000 59.380,-11.000" fill="#808080" stroke="#222222" stroke-width="1" stroke-linejoin="round"/><polygon points="-60.620,-11.000 -40.620,-11.000 -40.620,9.000 -60.620,9.000" fill="#808080" stroke="#222222" stroke-width="1" stroke-linejoin="round"/><polygon points="-40.620,-11.000 -20.620,-11.000 -20.620,9.000 -40.620,9.000" fill="#808080" stroke="#222222" stroke-width="1" stroke-linejoin="round"/><polygon points="-20.620,-11.000 -0.620,-11.000 -0.620,9.000 -20.620,9.000" fill="#808080" stroke="#222222" stroke-width="1" stroke-linejoin="round"/><polygon points="-0.620,-11.000 19.380,-11.000 19.380,9.000 -0.620,9.000" fill="#808080" stroke="#222222" stroke-width="1" stroke-linejoin="round"/><polygon points="19.380,-11.000 39.380,-11.000 39.380,9.000 19.380,9.000" fill="#808080" stroke="#222222" stroke-width="1" stroke-linejoin="round"/><polygon points="39.380,-11.000 59.380,-11.000 59.380,9.000 39.380,9.000" fill="#808080" stroke="#222222" stroke-width="1" stroke-linejoin="round"/><polygon points="59.380,-11.000 79.380,-11.000 79.380,9.000 59.380,9.000" fill="#808080" stroke="#222222" stroke-width="1" stroke-linejoin="round"/><polygon points="-60.620,9.000 -40.620,9.000 -40.620,29.000 -60.620,29.000" fill="#808080" stroke="#222222" stroke-width="1" stroke-linejoin="round"/><polygon points="-40.620,9.000 -20.620,9.000 -20.620,29.000 -40.620,29.000" fill="#808080" stroke="#222222" stroke-width="1" stroke-linejoin="round"/><polygon points="-20.620,9.000 -0.620,9.000 -0.620,29.000 -20.620,29.000" fill="#808080" stroke="#222222" stroke-width="1" stroke-linejoin="round"/><polygon points="-0.620,9.000 19.380,9.000 19.380,29.000 -0.620,29.000" fill="#808080" stroke="#222222" stroke-width="1" stroke-linejoin="round"/><polygon points="19.380,9.000 39.380,9.000 39.380,29.000 19.380,29.000" fill="#808080" stroke="#222222" stroke-width="1" stroke-linejoin="round"/><polygon points="39.380,9.000 59.380,9.000 59.380,29.000 39.380,29.000" fill="#808080" stroke="#222222" stroke-width="1" stroke-linejoin="round"/><polygon points="59.380,9.000 79.380,9.000 79.380,29.000 59.380,29.000" fill="#808080" stroke="#222222" stroke-width="1" stroke-linejoin="round"/><polygon points="-60.620,29.000 -40.620,29.000 -40.620,49.000 -60.620,49.000" fill="#808080" stroke="#222222" stroke-width="1" stroke-linejoin="round"/><polygon points="-40.620,29.000 -20.620,29.000 -20.620,49.000 -40.620,49.000" fill="#808080" stroke="#222222" stroke-width="1" stroke-linejoin="round"/><polygon points="-20.620,29.000 -0.620,29.000 -0.620,49.000 -20.620,49.000" fill="#808080" stroke="#222222" stroke-width="1" stroke-linejoin="round"/><polygon points="-0.620,29.000 19.380,29.000 19.380,49.000 -0.620,49.000" fill="#808080" stroke="#222222" stroke-width="1" stroke-linejoin="round"/><polygon points="19.380,29.000 39.380,29.000 39.380,49.000 19.380,49.000" fill="#808080" stroke="#222222" stroke-width="1" stroke-linejoin="round"/><polygon points="39.380,29.000 59.380,29.000 59.380,49.000 39.380,49.000" fill="#808080" stroke="#222222" stroke-width="1" stroke-linejoin="round"/><polygon points="59.380,29.000 79.380,29.000 79.380,49.000 59.380,49.000" fill="#808080" stroke="#222222" stroke-width="1" stroke-linejoin="round"/><polygon points="88.040,-98.000 79.380,-91.000 79.380,-71.000 88.040,-78.000" fill="#808080" stroke="#222222" stroke-width="1" stroke-linejoin="round"/><polygon points="96.700,-105.000 88.040,-98.000 88.040,-78.000 96.700,-85.000" fill="#808080" stroke="#222222" stroke-width="1" stroke-linejoin="round"/><polygon points="105.360,-112.000 96.700,-105.000 96.700,-85.000 105.360,-92.000" fill="#1A1A1A" stroke="#222222" stroke-width="1" stroke-linejoin="round"/><polygon points="114.020,-119.000 105.360,-112.000 105.360,-92.000 114.020,-99.000" fill="#808080" stroke="#222222" stroke-width="1" stroke-linejoin="round"/><polygon points="122.680,-126.000 114.020,-119.000 114.020,-99.000 122.680,-106.000" fill="#1A1A1A" stroke="#222222" stroke-width="1" stroke-linejoin="round"/><polygon points="131.340,-133.000 122.680,-126.000 122.680,-106.000 131.340,-113.000" fill="#808080" stroke="#222222" stroke-width="1" stroke-linejoin="round"/><polygon points="140.000,-140.000 131.340,-133.000 131.340,-113.000 140.000,-120.000" fill="#808080" stroke="#222222" stroke-width="1" stroke-linejoin="round"/><polygon points="88.040,-78.000 79.380,-71.000 79.380,-51.000 88.040,-58.000" fill="#808080" stroke="#222222" stroke-width="1" stroke-linejoin="round"/><polygon points="96.700,-85.000 88.040,-78.000 88.040,-58.000 96.700,-65.000" fill="#808080" stroke="#222222" stroke-width="1" stroke-linejoin="round"/><polygon points="105.360,-92.000 96.700,-85.000 96.700,-65.000 105.360,-72.000" fill="#808080" stroke="#222222" stroke-width="1" stroke-linejoin="round"/><polygon points="114.020,-99.000 105.360,-92.000 105.360,-72.000 114.020,-79.000" fill="#808080" stroke="#222222" stroke-width="1" stroke-linejoin="round"/><polygon points="122.680,-106.000 114.020,-99.000 114.020,-79.000 122.680,-86.000" fill="#808080" stroke="#222222" stroke-width="1" stroke-linejoin="round"/><polygon points="131.340,-113.000 122.680,-106.000 122.680,-86.000 131.340,-93.000" fill="#808080" stroke="#222222" stroke-width="1" stroke-linejoin="round"/><polygon points="140.000,-120.000 131.340,-113.000 131.340,-93.000 140.000,-100.000" fill="#808080" stroke="#222222" stroke-width="1" stroke-linejoin="round"/><polygon points="88.040,-58.000 79.380,-51.000 79.380,-31.000 88.040,-38.000" fill="#808080" stroke="#222222" stroke-width="1" stroke-linejoin="round"/><polygon points="96.700,-65.000 88.040,-58.000 88.040,-38.000 96.700,-45.000" fill="#808080" stroke="#222222" stroke-width="1" stroke-linejoin="round"/><polygon points="105.360,-72.000 96.700,-65.000 96.700,-45.000 105.360,-52.000" fill="#808080" stroke="#222222" stroke-width="1" stroke-linejoin="round"/><polygon points="114.020,-79.000 105.360,-72.000 105.360,-52.000 114.020,-59.000" fill="#808080" stroke="#222222" stroke-width="1" stroke-linejoin="round"/><polygon points="122.680,-86.000 114.020,-79.000 114.020,-59.000 122.680,-66.000" fill="#808080" stroke="#222222" stroke-width="1" stroke-linejoin="round"/><polygon points="131.340,-93.000 122.680,-86.000 122.680,-66.000 131.340,-73.000" fill="#808080" stroke="#222222" stroke-width="1" stroke-linejoin="round"/><polygon points="140.000,-100.000 131.340,-93.000 131.340,-73.000 140.000,-80.000" fill="#808080" stroke="#222222" stroke-width="1" stroke-linejoin="round"/><polygon points="88.040,-38.000 79.380,-31.000 79.380,-11.000 88.040,-18.000" fill="#808080" stroke="#222222" stroke-width="1" stroke-linejoin="round"/><polygon points="96.700,-45.000 88.040,-38.000 88.040,-18.000 96.700,-25.000" fill="#808080" stroke="#222222" stroke-width="1" stroke-linejoin="round"/><polygon points="105.360,-52.000 96.700,-45.000 96.700,-25.000 105.360,-32.000" fill="#808080" stroke="#222222" stroke-width="1" stroke-linejoin="round"/><polygon points="114.020,-59.000 105.360,-52.000 105.360,-32.000 114.020,-39.000" fill="#808080" stroke="#222222" stroke-width="1" stroke-linejoin="round"/><polygon points="122.680,-66.000 114.020,-59.000 114.020,-39.000 122.680,-46.000" fill="#808080" stroke="#222222" stroke-width="1" stroke-linejoin="round"/><polygon points="131.340,-73.000 122.680,-66.000 122.680,-46.000 131.340,-53.000" fill="#808080" stroke="#222222" stroke-width="1" stroke-linejoin="round"/><polygon points="140.000,-80.000 131.340,-73.000 131.340,-53.000 140.000,-60.000" fill="#808080" stroke="#222222" stroke-width="1" stroke-linejoin="round"/><polygon points="88.040,-18.000 79.380,-11.000 79.380,9.000 88.040,2.000" fill="#808080" stroke="#222222" stroke-width="1" stroke-linejoin="round"/><polygon points="96.700,-25.000 88.040,-18.000 88.040,2.000 96.700,-5.000" fill="#808080" stroke="#222222" stroke-width="1" stroke-linejoin="round"/><polygon points="105.360,-32.000 96.700,-25.000 96.700,-5.000 105.360,-12.000" fill="#808080" stroke="#222222" stroke-width="1" stroke-linejoin="round"/><polygon points="114.020,-39.000 105.360,-32.000 105.360,-12.000 114.020,-19.000" fill="#808080" stroke="#222222" stroke-width="1" stroke-linejoin="round"/><polygon points="122.680,-46.000 114.020,-39.000 114.020,-19.000 122.680,-26.000" fill="#808080" stroke="#222222" stroke-width="1" stroke-linejoin="round"/><polygon points="131.340,-53.000 122.680,-46.000 122.680,-26.000 131.340,-33.000" fill="#808080" stroke="#222222" stroke-width="1" stroke-linejoin="round"/><polygon points="140.000,-60.000 131.340,-53.000 131.340,-33.000 140.000,-40.000" fill="#808080" stroke="#222222" stroke-width="1" stroke-linejoin="round"/><polygon points="88.040,2.000 79.380,9.000 79.380,29.000 88.040,22.000" fill="#808080" stroke="#222222" stroke-width="1" stroke-linejoin="round"/><polygon points="96.700,-5.000 88.040,2.000 88.040,22.000 96.700,15.000" fill="#808080" stroke="#222222" stroke-width="1" stroke-linejoin="round"/><polygon points="105.360,-12.000 96.700,-5.000 96.700,15.000 105.360,8.000" fill="#808080" stroke="#222222" stroke-width="1" stroke-linejoin="round"/><polygon points="114.020,-19.000 105.360,-12.000 105.360,8.000 114.020,1.000" fill="#808080" stroke="#222222" stroke-width="1" stroke-linejoin="round"/><polygon points="122.680,-26.000 114.020,-19.000 114.020,1.000 122.680,-6.000" fill="#808080" stroke="#222222" stroke-width="1" stroke-linejoin="round"/><polygon points="131.340,-33.000 122.680,-26.000 122.680,-6.000 131.340,-13.000" fill="#808080" stroke="#222222" stroke-width="1" stroke-linejoin="round"/><polygon points="140.000,-40.000 131.340,-33.000 131.340,-13.000 140.000,-20.000" fill="#808080" stroke="#222222" stroke-width="1" stroke-linejoin="round"/><polygon points="88.040,22.000 79.380,29.000 79.380,49.000 88.040,42.000" fill="#808080" stroke="#222222" stroke-width="1" stroke-linejoin="round"/><polygon points="96.700,15.000 88.040,22.000 88.040,42.000 96.700,35.000" fill="#808080" stroke="#222222" stroke-width="1" stroke-linejoin="round"/><polygon points="105.360,8.000 96.700,15.000 96.700,35.000 105.360,28.000" fill="#808080" stroke="#222222" stroke-width="1" stroke-linejoin="round"/><polygon points="114.020,1.000 105.360,8.000 105.360,28.000 114.020,21.000" fill="#808080" stroke="#222222" stroke-width="1" stroke-linejoin="round"/><polygon points="122.680,-6.000 114.020,1.000 114.020,21.000 122.680,14.000" fill="#808080" stroke="#222222" stroke-width="1" stroke-linejoin="round"/><polygon points="131.340,-13.000 122.680,-6.000 122.680,14.000 131.340,7.000" fill="#808080" stroke="#222222" stroke-width="1" stroke-linejoin="round"/><polygon points="140.000,-20.000 131.340,-13.000 131.340,7.000 140.000,0.000" fill="#808080" stroke="#222222" stroke-width="1" stroke-linejoin="round"/></svg>