<svg xmlns="http://www.w3.org/2000/svg" viewBox="-53.300 -110.000 163.300 155.000"><title>iso-cubeviz</title><desc>Isometric view of a 5x5x5 Rubik's cube</desc><polygon points="0.000,-100.000 20.000,-100.000 11.340,-93.000 -8.660,-93.000" fill="#808080" stroke="#222222" stroke-width="1" stroke-linejoin="round"/><polygon points="20.000,-100.000 40.000,-100.000 31.340,-93.000 11.340,-93.000" fill="#1A1A1A" stroke="#222222" stroke-width="1" stroke-linejoin="round"/><polygon points="40.000,-100.000 60.000,-100.000 51.340,-93.000 31.340,-93.000" fill="#808080" stroke="#222222" stroke-width="1" stroke-linejoin="round"/><polygon points="60.000,-100.000 80.000,-100.000 71.340,-93.000 51.340,-93.000" fill="#1A1A1A" stroke="#222222" stroke-width="1" stroke-linejoin="round"/><polygon points="80.000,-100.000 100.000,-100.000 91.340,-93.000 71.340,-93.000" fill="#808080" stroke="#222222" stroke-width="1" stroke-linejoin="round"/><polygon points="-8.660,-93.000 11.340,-93.000 2.680,-86.000 -17.320,-86.000" fill="#808080" stroke="#222222" stroke-width="1" stroke-linejoin="round"/><polygon points="11.340,-93.000 31.340,-93.000 22.680,-86.000 2.680,-86.000" fill="#808080" stroke="#222222" stroke-width="1" stroke-linejoin="round"/><polygon points="31.340,-93.000 51.340,-93.000 42.680,-86.000 22.680,-86.000" fill="#808080" stroke="#222222" stroke-width="1" stroke-linejoin="round"/><polygon points="51.340,-93.000 71.340,-93.000 62.680,-86.000 42.680,-86.000" fill="#808080" stroke="#222222" stroke-width="1" stroke-linejoin="round"/><polygon points="71.340,-93.000 91.340,-93.000 82.680,-86.000 62.680,-86.000" fill="#808080" stroke="#222222" stroke-width="1" stroke-linejoin="round"/><polygon points="-17.320,-86.000 2.680,-86.000 -5.980,-79.000 -25.980,-79.000" fill="#808080" stroke="#222222" stroke-width="1" stroke-linejoin="round"/><polygon points="2.680,-86.000 22.680,-86.000 14.020,-79.000 -5.980,-79.000" fill="#808080" stroke="#222222" stroke-width="1" stroke-linejoin="round"/><polygon points="22.680,-86.000 42.680,-86.000 34.020,-79.000 14.020,-79.000" fill="#808080" stroke="#222222" stroke-width="1" stroke-linejoin="round"/><polygon points="42.680,-86.000 62.680,-86.000 54.020,-79.000 34.020,-79.000" fill="#808080" stroke="#222222" stroke-width="1" stroke-linejoin="round"/><polygon points="62.680,-86.000 82.680,-86.000 74.020,-79.000 54.020,-79.000" fill="#808080" stroke="#222222" stroke-width="1" stroke-linejoin="round"/><polygon points="-25.980,-79.000 -5.980,-79.000 -14.640,-72.000 -34.640,-72.000" fill="#808080" stroke="#222222" stroke-width="1" stroke-linejoin="round"/><polygon points="-5.980,-79.000 14.020,-79.000 5.360,-72.000 -14.640,-72.000" fill="#808080" stroke="#222222" stroke-width="1" stroke-linejoin="round"/><polygon points="14.020,-79.000 34.020,-79.000 25.360,-72.000 5.360,-72.000" fill="#808080" stroke="#222222" stroke-width="1" stroke-linejoin="round"/><polygon points="34.020,-79.000 54.020,-79.000 45.360,-72.000 25.360,-72.000" fill="#808080" stroke="#222222" stroke-width="1" stroke-linejoin="round"/><polygon points="54.020,-79.000 74.020,-79.000 65.360,-72.000 45.360,-72.000" fill="#808080" stroke="#222222" stroke-width="1" stroke-linejoin="round"/><polygon points="-34.640,-72.000 -14.640,-72.000 -23.300,-65.000 -43.300,-65.000" fill="#808080" stroke="#222222" stroke-width="1" stroke-linejoin="round"/><polygon points="-14.640,-72.000 5.360,-72.000 -3.300,-65.000 -23.300,-65.000" fill="#1A1A1A" stroke="#222222" stroke-width="1" stroke-linejoin="round"/><polygon points="5.360,-72.000 25.360,-72.000 16.700,-65.000 -3.300,-65.000" fill="#808080" stroke="#222222" stroke-width="1" stroke-linejoin="round"/><polygon points="25.360,-72.000 45.360,-72.000 36.700,-65.000 16.700,-65.000" fill="#1A1A1A" stroke="#222222" stroke-width="1" stroke-linejoin="round"/><polygon points="45.360,-72.000 65.360,-72.000 56.700,-65.000 36.700,-65.000" fill="#808080" stroke="#222222" stroke-width="1" stroke-linejoin="round"/><polygon points="-43.300,-65.000 -23.300,-65.000 -23.300,-45.000 -43.300,-45.000" fill="#808080" stroke="#222222" stroke-width="1" stroke-linejoin="round"/><polygon points="-23.300,-65.000 -3.300,-65.000 -3.300,-45.000 -23.300,-45.000" fill="#1A1A1A" stroke="#222222" stroke-width="1" stroke-linejoin="round"/><polygon points="-3.300,-65.000 16.700,-65.000 16.700,-45.000 -3.300,-45.000" fill="#808080" stroke="#222222" stroke-width="1" stroke-linejoin="round"/><polygon points="16.700,-65.000 36.700,-65.000 36.700,-45.000 16.700,-45.000" fill="#1A1A1A" stroke="#222222" stroke-width="1" stroke-linejoin="round"/><polygon points="36.700,-65.000 56.700,-65.000 56.700,-45.000 36.700,-45.000" fill="#808080" stroke="#222222" stroke-width="1" stroke-linejoin="round"/><polygon points="-43.300,-45.000 -23.300,-45.000 -23.300,-25.000 -43.300,-25.000" fill="#808080" stroke="#222222" stroke-width="1" stroke-linejoin="round"/><polygon points="-23.300,-45.000 -3.300,-45.000 -3.300,-25.000 -23.300,-25.000" fill="#808080" stroke="#222222" stroke-width="1" stroke-linejoin="round"/><polygon points="-3.300,-45.000 16.700,-45.000 16.700,-25.000 -3.300,-25.000" fill="#808080" stroke="#222222" stroke-width="1" stroke-linejoin="round"/><polygon points="16.700,-45.000 36.700,-45.000 36.700,-25.000 16.700,-25.000" fill="#808080" stroke="#222222" stroke-width="1" stroke-linejoin="round"/><polygon points="36.700,-45.000 56.700,-45.000 56.700,-25.000 36.700,-25.000" fill="#808080" stroke="#222222" stroke-width="1" stroke-linejoin="round"/><polygon points="-43.300,-25.000 -23.300,-25.000 -23.300,-5.000 -43.300,-5.000" fill="#808080" stroke="#222222" stroke-width="1" stroke-linejoin="round"/><polygon points="-23.300,-25.000 -3.300,-25.000 -3.300,-5.000 -23.300,-5.000" fill="#808080" stroke="#222222" stroke-width="1" stroke-linejoin="round"/><polygon points="-3.300,-25.000 16.700,-25.000 16.700,-5.000 -3.300,-5.000" fill="#808080" stroke="#222222" stroke-width="1" stroke-linejoin="round"/><polygon points="16.700,-25.000 36.700,-25.000 36.700,-5.000 16.700,-5.000" fill="#808080" stroke="#222222" stroke-width="1" stroke-linejoin="round"/><polygon points="36.700,-25.000 56.700,-25.000 56.700,-5.000 36.700,-5.000" fill="#808080" stroke="#222222" stroke-width="1" stroke-linejoin="round"/><polygon points="-43.300,-5.000 -23.300,-5.000 -23.300,15.000 -43.300,15.000" fill="#808080" stroke="#222222" stroke-width="1" stroke-linejoin="round"/><polygon points="-23.300,-5.000 -3.300,-5.000 -3.300,15.000 -23.300,15.000" fill="#808080" stroke="#222222" stroke-width="1" stroke-linejoin="round"/><polygon points="-3.300,-5.000 16.700,-5.000 16.700,15.000 -3.300,15.000" fill="#808080" stroke="#222222" stroke-width="1" stroke-linejoin="round"/><polygon points="16.700,-5.000 36.700,-5.000 36.700,15.000 16.700,15.000" fill="#808080" stroke="#222222" stroke-width="1" stroke-linejoin="round"/><polygon points="36.700,-5.000 56.700,-5.000 56.700,15.000 36.700,15.000" fill="#808080" stroke="#222222" stroke-width="1" stroke-linejoin="round"/><polygon points="-43.300,15.000 -23.300,15.000 -23.300,35.000 -43.300,35.000" fill="#808080" stroke="#222222" stroke-width="1" stroke-linejoin="round"/><polygon points="-23.300,15.000 -3.300,15.000 -3.300,35.000 -23.300,35.000" fill="#808080" stroke="#222222" stroke-width="1" stroke-linejoin="round"/><polygon points="-3.300,15.000 16.700,15.000 16.700,35.000 -3.300,35.000" fill="#808080" stroke="#222222" stroke-width="1" stroke-linejoin="round"/><polygon points="16.700,15.000 36.700,15.000 36.700,35.000 16.700,35.000" fill="#808080" stroke="#222222" stroke-width="1" stroke-linejoin="round"/><polygon points="36.700,15.000 56.700,15.000 56.700,35.000 36.700,35.000" fill="#808080" stroke="#222222" stroke-width="1" stroke-linejoin="round"/><polygon points="65.360,-72.000 56.700,-65.000 56.700,-45.000 65.360,-52.000" fill="#808080" stroke="#222222" stroke-width="1" stroke-linejoin="round"/><polygon points="74.020,-79.000 65.360,-72.000 65.360,-52.000 74.020,-59.000" fill="#808080" stroke="#222222" stroke-width="1" stroke-linejoin="round"/><polygon points="82.680,-86.000 74.020,-79.000 74.020,-59.000 82.680,-66.000" fill="#808080" stroke="#222222" stroke-width="1" stroke-linejoin="round"/><polygon points="91.340,-93.000 82.680,-86.000 82.680,-66.000 91.340,-73.000" fill="#808080" stroke="#222222" stroke-width="1" stroke-linejoin="round"/><polygon points="100.000,-100.000 91.340,-93.000 91.340,-73.000 100.000,-80.000" fill="#808080" stroke="#222222" stroke-width="1" stroke-linejoin="round"/><polygon points="65.360,-52.000 56.700,-45.000 56.700,-25.000 65.360,-32.000" fill="#808080" stroke="#222222" stroke-width="1" stroke-linejoin="round"/><polygon points="74.020,-59.000 65.360,-52.000 65.360,-32.000 74.020,-39.000" fill="#808080" stroke="#222222" stroke-width="1" stroke-linejoin="round"/><polygon points="82.680,-66.000 74.020,-59.000 74.020,-39.000 82.680,-46.000" fill="#808080" stroke="#222222" stroke-width="1" stroke-linejoin="round"/><polygon points="91.340,-73.000 82.680,-66.000 82.680,-46.000 91.340,-53.000" fill="#808080" stroke="#222222" stroke-width="1" stroke-linejoin="round"/><polygon points="100.000,-80.000 91.340,-73.000 91.340,-53.000 100.000,-60.000" fill="#808080" stroke="#222222" stroke-width="1" stroke-linejoin="round"/><polygon points="65.360,-32.000 56.700,-25.000 56.700,-5.000 65.360,-12.000" fill="#808080" stroke="#222222" stroke-width="1" stroke-linejoin="round"/><polygon points="74.020,-39.000 65.360,-32.000 65.360,-12.000 74.020,-19.000" fill="#808080" stroke="#222222" stroke-width="1" stroke-linejoin="round"/><polygon points="82.680,-46.000 74.020,-39.000 74.020,-19.000 82.680,-26.000" fill="#808080" stroke="#222222" stroke-width="1" stroke-linejoin="round"/><polygon points="91.340,-53.000 82.680,-46.000 82.680,-26.000 91.340,-33.000" fill="#808080" stroke="#222222" stroke-width="1" stroke-linejoin="round"/><polygon points="100.000,-60.000 91.340,-53.000 91.340,-33.000 100.000,-40.000" fill="#808080" stroke="#222222" stroke-width="1" stroke-linejoin="round"/><polygon points="65.360,-12.000 56.700,-5.000 56.700,15.000 65.360,8.000" fill="#808080" stroke="#222222" stroke-width="1" stroke-linejoin="round"/><polygon points="74.020,-19.000 65.360,-12.000 65.360,8.000 74.020,1.000" fill="#808080" stroke="#222222" stroke-width="1" stroke-linejoin="round"/><polygon points="82.680,-26.000 74.020,-19.000 74.020,1.000 82.680,-6.000" fill="#808080" stroke="#222222" stroke-width="1" stroke-linejoin="round"/><polygon points="91.340,-33.000 82.680,-26.000 82.680,-6.000 91.340,-13.000" fill="#808080" stroke="#222222" stroke-width="1" stroke-linejoin="round"/><polygon points="100.000,-40.000 91.340,-33.000 91.340,-13.000 100.000,-20.000" fill="#808080" stroke="#222222" stroke-width="1" stroke-linejoin="round"/><polygon points="65.360,8.000 56.700,15.000 56.700,35.000 65.360,28.000" fill="#808080" stroke="#222222" stroke-width="1" stroke-linejoin="round"/><polygon points="74.020,1.000 65.360,8.000 65.360,28.000 74.020,21.000" fill="#808080" stroke="#222222" stroke-width="1" stroke-linejoin="round"/><polygon points="82.680,-6.000 74.020,1.000 74.020,21.000 82.680,14.000" fill="#808080" stroke="#222222" stroke-width="1" stroke-linejoin="round"/><polygon points="91.340,-13.000 82.680,-6.000 82.680,14.000 91.340,7.000" fill="#808080" stroke="#222222" stroke-width="1" stroke-linejoin="round"/><polygon points="100.000,-20.000 91.340,-13.000 91.340,7.000 100.000,0.000" fill="#808080" stroke="#222222" stroke-width="1" stroke-linejoin="round"/></svg>