<svg xmlns="http://www.w3.org/2000/svg" viewBox="-61.960 -130.000 191.960 182.000"><title>iso-cubeviz</title><desc>Isometric view of a 6x6x6 Rubik's cube</desc><polygon points="0.000,-120.000 20.000,-120.000 11.340,-113.000 -8.660,-113.000" fill="#FFD500" stroke="#222222" stroke-width="1" stroke-linejoin="round"/><polygon points="20.000,-120.000 40.000,-120.000 31.340,-113.000 11.340,-113.000" fill="#FFD500" stroke="#222222" stroke-width="1" stroke-linejoin="round"/><polygon points="40.000,-120.000 60.000,-120.000 51.340,-113.000 31.340,-113.000" fill="#FFD500" stroke="#222222" stroke-width="1" stroke-linejoin="round"/><polygon points="60.000,-120.000 80.000,-120.000 71.340,-113.000 51.340,-113.000" fill="#FFD500" stroke="#222222" stroke-width="1" stroke-linejoin="round"/><polygon points="80.000,-120.000 100.000,-120.000 91.340,-113.000 71.340,-113.000" fill="#FFD500" stroke="#222222" stroke-width="1" stroke-linejoin="round"/><polygon points="100.000,-120.000 120.000,-120.000 111.340,-113.000 91.340,-113.000" fill="#FFD500" stroke="#222222" stroke-width="1" stroke-linejoin="round"/><polygon points="-8.660,-113.000 11.340,-113.000 2.680,-106.000 -17.320,-106.000" fill="#FFD500" stroke="#222222" stroke-width="1" stroke-linejoin="round"/><polygon points="11.340,-113.000 31.340,-113.000 22.680,-106.000 2.680,-106.000" fill="#FFD500" stroke="#222222" stroke-width="1" stroke-linejoin="round"/><polygon points="31.340,-113.000 51.340,-113.000 42.680,-106.000 22.680,-106.000" fill="#FFD500" stroke="#222222" stroke-width="1" stroke-linejoin="round"/><polygon points="51.340,-113.000 71.340,-113.000 62.680,-106.000 42.680,-106.000" fill="#FFD500" stroke="#222222" stroke-width="1" stroke-linejoin="round"/><polygon points="71.340,-113.000 91.340,-113.000 82.680,-106.000 62.680,-106.000" fill="#FFD500" stroke="#222222" stroke-width="1" stroke-linejoin="round"/><polygon points="91.340,-113.000 111.340,-113.000 102.680,-106.000 82.680,-106.000" fill="#FFD500" stroke="#222222" stroke-width="1" stroke-linejoin="round"/><polygon points="-17.320,-106.000 2.680,-106.000 -5.980,-99.000 -25.980,-99.000" fill="#FFD500" stroke="#222222" stroke-width="1" stroke-linejoin="round"/><polygon points="2.680,-106.000 22.680,-106.000 14.020,-99.000 -5.980,-99.000" fill="#FFD500" stroke="#222222" stroke-width="1" stroke-linejoin="round"/><polygon points="22.680,-106.000 42.680,-106.000 34.020,-99.000 14.020,-99.000" fill="#FFD500" stroke="#222222" stroke-width="1" stroke-linejoin="round"/><polygon points="42.680,-106.000 62.680,-106.000 54.020,-99.000 34.020,-99.000" fill="#FFD500" stroke="#222222" stroke-width="1" stroke-linejoin="round"/><polygon points="62.680,-106.000 82.680,-106.000 74.020,-99.000 54.020,-99.000" fill="#FFD500" stroke="#222222" stroke-width="1" stroke-linejoin="round"/><polygon points="82.680,-106.000 102.680,-106.000 94.020,-99.000 74.020,-99.000" fill="#FFD500" stroke="#222222" stroke-width="1" stroke-linejoin="round"/><polygon points="-25.980,-99.000 -5.980,-99.000 -14.640,-92.000 -34.640,-92.000" fill="#FFD500" stroke="#222222" stroke-width="1" stroke-linejoin="round"/><polygon points="-5.980,-99.000 14.020,-99.000 5.360,-92.000 -14.640,-92.000" fill="#FFD500" stroke="#222222" stroke-width="1" stroke-linejoin="round"/><polygon points="14.020,-99.000 34.020,-99.000 25.360,-92.000 5.360,-92.000" fill="#FFD500" stroke="#222222" stroke-width="1" stroke-linejoin="round"/><polygon points="34.020,-99.000 54.020,-99.000 45.360,-92.000 25.360,-92.000" fill="#FFD500" stroke="#222222" stroke-width="1" stroke-linejoin="round"/><polygon points="54.020,-99.000 74.020,-99.000 65.360,-92.000 45.360,-92.000" fill="#FFD500" stroke="#222222" stroke-width="1" stroke-linejoin="round"/><polygon points="74.020,-99.000 94.020,-99.000 85.360,-92.000 65.360,-92.000" fill="#FFD500" stroke="#222222" stroke-width="1" stroke-linejoin="round"/><polygon points="-34.640,-92.000 -14.640,-92.000 -23.300,-85.000 -43.300,-85.000" fill="#FFD500" stroke="#222222" stroke-width="1" stroke-linejoin="round"/><polygon points="-14.640,-92.000 5.360,-92.000 -3.300,-85.000 -23.300,-85.000" fill="#FFD500" stroke="#222222" stroke-width="1" stroke-linejoin="round"/><polygon points="5.360,-92.000 25.360,-92.000 16.700,-85.000 -3.300,-85.000" fill="#FFD500" stroke="#222222" stroke-width="1" stroke-linejoin="round"/><polygon points="25.360,-92.000 45.360,-92.000 36.700,-85.000 16.700,-85.000" fill="#FFD500" stroke="#222222" stroke-width="1" stroke-linejoin="round"/><polygon points="45.360,-92.000 65.360,-92.000 56.700,-85.000 36.700,-85.000" fill="#FFD500" stroke="#222222" stroke-width="1" stroke-linejoin="round"/><polygon points="65.360,-92.000 85.360,-92.000 76.700,-85.000 56.700,-85.000" fill="#FFD500" stroke="#222222" stroke-width="1" stroke-linejoin="round"/><polygon points="-43.300,-85.000 -23.300,-85.000 -31.960,-78.000 -51.960,-78.000" fill="#FFD500" stroke="#222222" stroke-width="1" stroke-linejoin="round"/><polygon points="-23.300,-85.000 -3.300,-85.000 -11.960,-78.000 -31.960,-78.000" fill="#FFD500" stroke="#222222" stroke-width="1" stroke-linejoin="round"/><polygon points="-3.300,-85.000 16.700,-85.000 8.040,-78.000 -11.960,-78.000" fill="#FFD500" stroke="#222222" stroke-width="1" stroke-linejoin="round"/><polygon points="16.700,-85.000 36.700,-85.000 28.040,-78.000 8.040,-78.000" fill="#FFD500" stroke="#222222" stroke-width="1" stroke-linejoin="round"/><polygon points="36.700,-85.000 56.700,-85.000 48.040,-78.000 28.040,-78.000" fill="#FFD500" stroke="#222222" stroke-width="1" stroke-linejoin="round"/><polygon points="56.700,-85.000 76.700,-85.000 68.040,-78.000 48.040,-78.000" fill="#FFD500" stroke="#222222" stroke-width="1" stroke-linejoin="round"/><polygon points="-51.960,-78.000 -31.960,-78.000 -31.960,-58.000 -51.960,-58.000" fill="#009B48" stroke="#222222" stroke-width="1" stroke-linejoin="round"/><polygon points="-31.960,-78.000 -11.960,-78.000 -11.960,-58.000 -31.960,-58.000" fill="#0046AD" stroke="#222222" stroke-width="1" stroke-linejoin="round"/><polygon points="-11.960,-78.000 8.040,-78.000 8.040,-58.000 -11.960,-58.000" fill="#0046AD" stroke="#222222" stroke-width="1" stroke-linejoin="round"/><polygon points="8.040,-78.000 28.040,-78.000 28.040,-58.000 8.040,-58.000" fill="#0046AD" stroke="#222222" stroke-width="1" stroke-linejoin="round"/><polygon points="28.040,-78.000 48.040,-78.000 48.040,-58.000 28.040,-58.000" fill="#0046AD" stroke="#222222" stroke-width="1" stroke-linejoin="round"/><polygon points="48.040,-78.000 68.040,-78.000 68.040,-58.000 48.040,-58.000" fill="#009B48" stroke="#222222" stroke-width="1" stroke-linejoin="round"/><polygon points="-51.960,-58.000 -31.960,-58.000 -31.960,-38.000 -51.960,-38.000" fill="#009B48" stroke="#222222" stroke-width="1" stroke-linejoin="round"/><polygon points="-31.960,-58.000 -11.960,-58.000 -11.960,-38.000 -31.960,-38.000" fill="#009B48" stroke="#222222" stroke-width="1" stroke-linejoin="round"/><polygon points="-11.960,-58.000 8.040,-58.000 8.040,-38.000 -11.960,-38.000" fill="#009B48" stroke="#222222" stroke-width="1" stroke-linejoin="round"/><polygon points="8.040,-58.000 28.040,-58.000 28.040,-38.000 8.040,-38.000" fill="#009B48" stroke="#222222" stroke-width="1" stroke-linejoin="round"/><polygon points="28.040,-58.000 48.040,-58.000 48.040,-38.000 28.040,-38.000" fill="#009B48" stroke="#222222" stroke-width="1" stroke-linejoin="round"/><polygon points="48.040,-58.000 68.040,-58.000 68.040,-38.000 48.040,-38.000" fill="#009B48" stroke="#222222" stroke-width="1" stroke-linejoin="round"/><polygon points="-51.960,-38.000 -31.960,-38.000 -31.960,-18.000 -51.960,-18.000" fill="#009B48" stroke="#222222" stroke-width="1" stroke-linejoin="round"/><polygon points="-31.960,-38.000 -11.960,-38.000 -11.960,-18.000 -31.960,-18.000" fill="#009B48" stroke="#222222" stroke-width="1" stroke-linejoin="round"/><polygon points="-11.960,-38.000 8.040,-38.000 8.040,-18.000 -11.960,-18.000" fill="#009B48" stroke="#222222" stroke-width="1" stroke-linejoin="round"/><polygon points="8.040,-38.000 28.040,-38.000 28.040,-18.000 8.040,-18.000" fill="#009B48" stroke="#222222" stroke-width="1" stroke-linejoin="round"/><polygon points="28.040,-38.000 48.040,-38.000 48.040,-18.000 28.040,-18.000" fill="#009B48" stroke="#222222" stroke-width="1" stroke-linejoin="round"/><polygon points="48.040,-38.000 68.040,-38.000 68.040,-18.000 48.040,-18.000" fill="#009B48" stroke="#222222" stroke-width="1" stroke-linejoin="round"/><polygon points="-51.960,-18.000 -31.960,-18.000 -31.960,2.000 -51.960,2.000" fill="#009B48" stroke="#222222" stroke-width="1" stroke-linejoin="round"/><polygon points="-31.960,-18.000 -11.960,-18.000 -11.960,2.000 -31.960,2.000" fill="#009B48" stroke="#222222" stroke-width="1" stroke-linejoin="round"/><polygon points="-11.960,-18.000 8.040,-18.000 8.040,2.000 -11.960,2.000" fill="#009B48" stroke="#222222" stroke-width="1" stroke-linejoin="round"/><polygon points="8.040,-18.000 28.040,-18.000 28.040,2.000 8.040,2.000" fill="#009B48" stroke="#222222" stroke-width="1" stroke-linejoin="round"/><polygon points="28.040,-18.000 48.040,-18.000 48.040,2.000 28.040,2.000" fill="#009B48" stroke="#222222" stroke-width="1" stroke-linejoin="round"/><polygon points="48.040,-18.000 68.040,-18.000 68.040,2.000 48.040,2.000" fill="#009B48" stroke="#222222" stroke-width="1" stroke-linejoin="round"/><polygon points="-51.960,2.000 -31.960,2.000 -31.960,22.000 -51.960,22.000" fill="#009B48" stroke="#222222" stroke-width="1" stroke-linejoin="round"/><polygon points="-31.960,2.000 -11.960,2.000 -11.960,22.000 -31.960,22.000" fill="#009B48" stroke="#222222" stroke-width="1" stroke-linejoin="round"/><polygon points="-11.960,2.000 8.040,2.000 8.040,22.000 -11.960,22.000" fill="#009B48" stroke="#222222" stroke-width="1" stroke-linejoin="round"/><polygon points="8.040,2.000 28.040,2.000 28.040,22.000 8.040,22.000" fill="#009B48" stroke="#222222" stroke-width="1" stroke-linejoin="round"/><polygon points="28.040,2.000 48.040,2.000 48.040,22.000 28.040,22.000" fill="#009B48" stroke="#222222" stroke-width="1" stroke-linejoin="round"/><polygon points="48.040,2.000 68.040,2.000 68.040,22.000 48.040,22.000" fill="#009B48" stroke="#222222" stroke-width="1" stroke-linejoin="round"/><polygon points="-51.960,22.000 -31.960,22.000 -31.960,42.000 -51.960,42.000" fill="#009B48" stroke="#222222" stroke-width="1" stroke-linejoin="round"/><polygon points="-31.960,22.000 -11.960,22.000 -11.960,42.000 -31.960,42.000" fill="#009B48" stroke="#222222" stroke-width="1" stroke-linejoin="round"/><polygon points="-11.960,22.000 8.040,22.000 8.040,42.000 -11.960,42.000" fill="#009B48" stroke="#222222" stroke-width="1" stroke-linejoin="round"/><polygon points="8.040,22.000 28.040,22.000 28.040,42.000 8.040,42.000" fill="#009B48" stroke="#222222" stroke-width="1" stroke-linejoin="round"/><polygon points="28.040,22.000 48.040,22.000 48.040,42.000 28.040,42.000" fill="#009B48" stroke="#222222" stroke-width="1" stroke-linejoin="round"/><polygon points="48.040,22.000 68.040,22.000 68.040,42.000 48.040,42.000" fill="#009B48" stroke="#222222" stroke-width="1" stroke-linejoin="round"/><polygon points="76.700,-85.000 68.040,-78.000 68.040,-58.000 76.700,-65.000" fill="#FF5800" stroke="#222222" stroke-width="1" stroke-linejoin="round"/><polygon points="85.360,-92.000 76.700,-85.000 76.700,-65.000 85.360,-72.000" fill="#FF5800" stroke="#222222" stroke-width="1" stroke-linejoin="round"/><polygon points="94.020,-99.000 85.360,-92.000 85.360,-72.000 94.020,-79.000" fill="#FF5800" stroke="#222222" stroke-width="1" stroke-linejoin="round"/><polygon points="102.680,-106.000 94.020,-99.000 94.020,-79.000 102.680,-86.000" fill="#FF5800" stroke="#222222" stroke-width="1" stroke-linejoin="round"/><polygon points="111.340,-113.000 102.680,-106.000 102.680,-86.000 111.340,-93.000" fill="#FF5800" stroke="#222222" stroke-width="1" stroke-linejoin="round"/><polygon points="120.000,-120.000 111.340,-113.000 111.340,-93.000 120.000,-100.000" fill="#FF5800" stroke="#222222" stroke-width="1" stroke-linejoin="round"/><polygon points="76.700,-65.000 68.040,-58.000 68.040,-38.000 76.700,-45.000" fill="#FF5800" stroke="#222222" stroke-width="1" stroke-linejoin="round"/><polygon points="85.360,-72.000 76.700,-65.000 76.700,-45.000 85.360,-52.000" fill="#FF5800" stroke="#222222" stroke-width="1" stroke-linejoin="round"/><polygon points="94.020,-79.000 85.360,-72.000 85.360,-52.000 94.020,-59.000" fill="#FF5800" stroke="#222222" stroke-width="1" stroke-linejoin="round"/><polygon points="102.680,-86.000 94.020,-79.000 94.020,-59.000 102.680,-66.000" fill="#FF5800" stroke="#222222" stroke-width="1" stroke-linejoin="round"/><polygon points="111.340,-93.000 102.680,-86.000 102.680,-66.000 111.340,-73.000" fill="#FF5800" stroke="#222222" stroke-width="1" stroke-linejoin="round"/><polygon points="120.000,-100.000 111.340,-93.000 111.340,-73.000 120.000,-80.000" fill="#FF5800" stroke="#222222" stroke-width="1" stroke-linejoin="round"/><polygon points="76.700,-45.000 68.040,-38.000 68.040,-18.000 76.700,-25.000" fill="#FF5800" stroke="#222222" stroke-width="1" stroke-linejoin="round"/><polygon points="85.360,-52.000 76.700,-45.000 76.700,-25.000 85.360,-32.000" fill="#FF5800" stroke="#222222" stroke-width="1" stroke-linejoin="round"/><polygon points="94.020,-59.000 85.360,-52.000 85.360,-32.000 94.020,-39.000" fill="#FF5800" stroke="#222222" stroke-width="1" stroke-linejoin="round"/><polygon points="102.680,-66.000 94.020,-59.000 94.020,-39.000 102.680,-46.000" fill="#FF5800" stroke="#222222" stroke-width="1" stroke-linejoin="round"/><polygon points="111.340,-73.000 102.680,-66.000 102.680,-46.000 111.340,-53.000" fill="#FF5800" stroke="#222222" stroke-width="1" stroke-linejoin="round"/><polygon points="120.000,-80.000 111.340,-73.000 111.340,-53.000 120.000,-60.000" fill="#FF5800" stroke="#222222" stroke-width="1" stroke-linejoin="round"/><polygon points="76.700,-25.000 68.040,-18.000 68.040,2.000 76.700,-5.000" fill="#FF5800" stroke="#222222" stroke-width="1" stroke-linejoin="round"/><polygon points="85.360,-32.000 76.700,-25.000 76.700,-5.000 85.360,-12.000" fill="#FF5800" stroke="#222222" stroke-width="1" stroke-linejoin="round"/><polygon points="94.020,-39.000 85.360,-32.000 85.360,-12.000 94.020,-19.000" fill="#FF5800" stroke="#222222" stroke-width="1" stroke-linejoin="round"/><polygon points="102.680,-46.000 94.020,-39.000 94.020,-19.000 102.680,-26.000" fill="#FF5800" stroke="#222222" stroke-width="1" stroke-linejoin="round"/><polygon points="111.340,-53.000 102.680,-46.000 102.680,-26.000 111.340,-33.000" fill="#FF5800" stroke="#222222" stroke-width="1" stroke-linejoin="round"/><polygon points="120.000,-60.000 111.340,-53.000 111.340,-33.000 120.000,-40.000" fill="#FF5800" stroke="#222222" stroke-width="1" stroke-linejoin="round"/><polygon points="76.700,-5.000 68.040,2.000 68.040,22.000 76.700,15.000" fill="#FF5800" stroke="#222222" stroke-width="1" stroke-linejoin="round"/><polygon points="85.360,-12.000 76.700,-5.000 76.700,15.000 85.360,8.000" fill="#FF5800" stroke="#222222" stroke-width="1" stroke-linejoin="round"/><polygon points="94.020,-19.000 85.360,-12.000 85.360,8.000 94.020,1.000" fill="#FF5800" stroke="#222222" stroke-width="1" stroke-linejoin="round"/><polygon points="102.680,-26.000 94.020,-19.000 94.020,1.000 102.680,-6.000" fill="#FF5800" stroke="#222222" stroke-width="1" stroke-linejoin="round"/><polygon points="111.340,-33.000 102.680,-26.000 102.680,-6.000 111.340,-13.000" fill="#FF5800" stroke="#222222" stroke-width="1" stroke-linejoin="round"/><polygon points="120.000,-40.000 111.340,-33.000 111.340,-13.000 120.000,-20.000" fill="#FF5800" stroke="#222222" stroke-width="1" stroke-linejoin="round"/><polygon points="76.700,15.000 68.040,22.000 68.040,42.000 76.700,35.000" fill="#FF5800" stroke="#222222" stroke-width="1" stroke-linejoin="round"/><polygon points="85.360,8.000 76.700,15.000 76.700,35.000 85.360,28.000" fill="#FF5800" stroke="#222222" stroke-width="1" stroke-linejoin="round"/><polygon points="94.020,1.000 85.360,8.000 85.360,28.000 94.020,21.000" fill="#FF5800" stroke="#222222" stroke-width="1" stroke-linejoin="round"/><polygon points="102.680,-6.000 94.020,1.000 94.020,21.000 102.680,14.000" fill="#FF5800" stroke="#222222" stroke-width="1" stroke-linejoin="round"/><polygon points="111.340,-13.000 102.680,-6.000 102.680,14.000 111.340,7.000" fill="#FF5800" stroke="#222222" stroke-width="1" stroke-linejoin="round"/><polygon points="120.000,-20.000 111.340,-13.000 111.340,7.000 120.000,0.000" fill="#FF5800" stroke="#222222" stroke-width="1" stroke-linejoin="round"/></svg>