<svg xmlns="http://www.w3.org/2000/svg" viewBox="-44.640 -90.000 134.640 128.000"><title>iso-cubeviz</title><desc>Isometric view of a 4x4x4 Rubik's cube</desc><polygon points="0.000,-80.000 20.000,-80.000 11.340,-73.000 -8.660,-73.000" fill="#808080" stroke="#222222" stroke-width="1" stroke-linejoin="round"/><polygon points="20.000,-80.000 40.000,-80.000 31.340,-73.000 11.340,-73.000" fill="#FFD500" stroke="#222222" stroke-width="1" stroke-linejoin="round"/><polygon points="40.000,-80.000 60.000,-80.000 51.340,-73.000 31.340,-73.000" fill="#FFD500" stroke="#222222" stroke-width="1" stroke-linejoin="round"/><polygon points="60.000,-80.000 80.000,-80.000 71.340,-73.000 51.340,-73.000" fill="#808080" stroke="#222222" stroke-width="1" stroke-linejoin="round"/><polygon points="-8.660,-73.000 11.340,-73.000 2.680,-66.000 -17.320,-66.000" fill="#808080" stroke="#222222" stroke-width="1" stroke-linejoin="round"/><polygon points="11.340,-73.000 31.340,-73.000 22.680,-66.000 2.680,-66.000" fill="#FFD500" stroke="#222222" stroke-width="1" stroke-linejoin="round"/><polygon points="31.340,-73.000 51.340,-73.000 42.680,-66.000 22.680,-66.000" fill="#FFD500" stroke="#222222" stroke-width="1" stroke-linejoin="round"/><polygon points="51.340,-73.000 71.340,-73.000 62.680,-66.000 42.680,-66.000" fill="#808080" stroke="#222222" stroke-width="1" stroke-linejoin="round"/><polygon points="-17.320,-66.000 2.680,-66.000 -5.980,-59.000 -25.980,-59.000" fill="#808080" stroke="#222222" stroke-width="1" stroke-linejoin="round"/><polygon points="2.680,-66.000 22.680,-66.000 14.020,-59.000 -5.980,-59.000" fill="#FFD500" stroke="#222222" stroke-width="1" stroke-linejoin="round"/><polygon points="22.680,-66.000 42.680,-66.000 34.020,-59.000 14.020,-59.000" fill="#FFD500" stroke="#222222" stroke-width="1" stroke-linejoin="round"/><polygon points="42.680,-66.000 62.680,-66.000 54.020,-59.000 34.020,-59.000" fill="#808080" stroke="#222222" stroke-width="1" stroke-linejoin="round"/><polygon points="-25.980,-59.000 -5.980,-59.000 -14.640,-52.000 -34.640,-52.000" fill="#808080" stroke="#222222" stroke-width="1" stroke-linejoin="round"/><polygon points="-5.980,-59.000 14.020,-59.000 5.360,-52.000 -14.640,-52.000" fill="#FFD500" stroke="#222222" stroke-width="1" stroke-linejoin="round"/><polygon points="14.020,-59.000 34.020,-59.000 25.360,-52.000 5.360,-52.000" fill="#FFD500" stroke="#222222" stroke-width="1" stroke-linejoin="round"/><polygon points="34.020,-59.000 54.020,-59.000 45.360,-52.000 25.360,-52.000" fill="#808080" stroke="#222222" stroke-width="1" stroke-linejoin="round"/><polygon points="-34.640,-52.000 -14.640,-52.000 -14.640,-32.000 -34.640,-32.000" fill="#808080" stroke="#222222" stroke-width="1" stroke-linejoin="round"/><polygon points="-14.640,-52.000 5.360,-52.000 5.360,-32.000 -14.640,-32.000" fill="#0046AD" stroke="#222222" stroke-width="1" stroke-linejoin="round"/><polygon points="5.360,-52.000 25.360,-52.000 25.360,-32.000 5.360,-32.000" fill="#0046AD" stroke="#222222" stroke-width="1" stroke-linejoin="round"/><polygon points="25.360,-52.000 45.360,-52.000 45.360,-32.000 25.360,-32.000" fill="#808080" stroke="#222222" stroke-width="1" stroke-linejoin="round"/><polygon points="-34.640,-32.000 -14.640,-32.000 -14.640,-12.000 -34.640,-12.000" fill="#808080" stroke="#222222" stroke-width="1" stroke-linejoin="round"/><polygon points="-14.640,-32.000 5.360,-32.000 5.360,-12.000 -14.640,-12.000" fill="#009B48" stroke="#222222" stroke-width="1" stroke-linejoin="round"/><polygon points="5.360,-32.000 25.360,-32.000 25.360,-12.000 5.360,-12.000" fill="#009B48" stroke="#222222" stroke-width="1" stroke-linejoin="round"/><polygon points="25.360,-32.000 45.360,-32.000 45.360,-12.000 25.360,-12.000" fill="#808080" stroke="#222222" stroke-width="1" stroke-linejoin="round"/><polygon points="-34.640,-12.000 -14.640,-12.000 -14.640,8.000 -34.640,8.000" fill="#808080" stroke="#222222" stroke-width="1" stroke-linejoin="round"/><polygon points="-14.640,-12.000 5.360,-12.000 5.360,8.000 -14.640,8.000" fill="#009B48" stroke="#222222" stroke-width="1" stroke-linejoin="round"/><polygon points="5.360,-12.000 25.360,-12.000 25.360,8.000 5.360,8.000" fill="#009B48" stroke="#222222" stroke-width="1" stroke-linejoin="round"/><polygon points="25.360,-12.000 45.360,-12.000 45.360,8.000 25.360,8.000" fill="#808080" stroke="#222222" stroke-width="1" stroke-linejoin="round"/><polygon points="-34.640,8.000 -14.640,8.000 -14.640,28.000 -34.640,28.000" fill="#808080" stroke="#222222" stroke-width="1" stroke-linejoin="round"/><polygon points="-14.640,8.000 5.360,8.000 5.360,28.000 -14.640,28.000" fill="#808080" stroke="#222222" stroke-width="1" stroke-linejoin="round"/><polygon points="5.360,8.000 25.360,8.000 25.360,28.000 5.360,28.000" fill="#808080" stroke="#222222" stroke-width="1" stroke-linejoin="round"/><polygon points="25.360,8.000 45.360,8.000 45.360,28.000 25.360,28.000" fill="#808080" stroke="#222222" stroke-width="1" stroke-linejoin="round"/><polygon points="54.020,-59.000 45.360,-52.000 45.360,-32.000 54.020,-39.000" fill="#808080" stroke="#222222" stroke-width="1" stroke-linejoin="round"/><polygon points="62.680,-66.000 54.020,-59.000 54.020,-39.000 62.680,-46.000" fill="#808080" stroke="#222222" stroke-width="1" stroke-linejoin="round"/><polygon points="71.340,-73.000 62.680,-66.000 62.680,-46.000 71.340,-53.000" fill="#808080" stroke="#222222" stroke-width="1" stroke-linejoin="round"/><polygon points="80.000,-80.000 71.340,-73.000 71.340,-53.000 80.000,-60.000" fill="#808080" stroke="#222222" stroke-width="1" stroke-linejoin="round"/><polygon points="54.020,-39.000 45.360,-32.000 45.360,-12.000 54.020,-19.000" fill="#808080" stroke="#222222" stroke-width="1" stroke-linejoin="round"/><polygon points="62.680,-46.000 54.020,-39.000 54.020,-19.000 62.680,-26.000" fill="#808080" stroke="#222222" stroke-width="1" stroke-linejoin="round"/><polygon points="71.340,-53.000 62.680,-46.000 62.680,-26.000 71.340,-33.000" fill="#808080" stroke="#222222" stroke-width="1" stroke-linejoin="round"/><polygon points="80.000,-60.000 71.340,-53.000 71.340,-33.000 80.000,-40.000" fill="#808080" stroke="#222222" stroke-width="1" stroke-linejoin="round"/><polygon points="54.020,-19.000 45.360,-12.000 45.360,8.000 54.020,1.000" fill="#808080" stroke="#222222" stroke-width="1" stroke-linejoin="round"/><polygon points="62.680,-26.000 54.020,-19.000 54.020,1.000 62.680,-6.000" fill="#808080" stroke="#222222" stroke-width="1" stroke-linejoin="round"/><polygon points="71.340,-33.000 62.680,-26.000 62.680,-6.000 71.340,-13.000" fill="#808080" stroke="#222222" stroke-width="1" stroke-linejoin="round"/><polygon points="80.000,-40.000 71.340,-33.000 71.340,-13.000 80.000,-20.000" fill="#808080" stroke="#222222" stroke-width="1" stroke-linejoin="round"/><polygon points="54.020,1.000 45.360,8.000 45.360,28.000 54.020,21.000" fill="#808080" stroke="#222222" stroke-width="1" stroke-linejoin="round"/><polygon points="62.680,-6.000 54.020,1.000 54.020,21.000 62.680,14.000" fill="#808080" stroke="#222222" stroke-width="1" stroke-linejoin="round"/><polygon points="71.340,-13.000 62.680,-6.000 62.680,14.000 71.340,7.000" fill="#808080" stroke="#222222" stroke-width="1" stroke-linejoin="round"/><polygon points="80.000,-20.000 71.340,-13.000 71.340,7.000 80.000,0.000" fill="#808080" stroke="#222222" stroke-width="1" stroke-linejoin="round"/></svg>