<svg xmlns="http://www.w3.org/2000/svg" viewBox="-79.280 -90.000 158.560 180.000"><title>iso-cubeviz</title><desc>Isometric view of a 4x4x4 Rubik's cube</desc><polygon points="0.000,-80.000 17.320,-70.000 0.000,-60.000 -17.320,-70.000" fill="#FF5800" stroke="#222222" stroke-width="1" stroke-linejoin="round"/><polygon points="17.320,-70.000 34.640,-60.000 17.320,-50.000 0.000,-60.000" fill="#FF5800" stroke="#222222" stroke-width="1" stroke-linejoin="round"/><polygon points="34.640,-60.000 51.960,-50.000 34.640,-40.000 17.320,-50.000" fill="#FF5800" stroke="#222222" stroke-width="1" stroke-linejoin="round"/><polygon points="51.960,-50.000 69.280,-40.000 51.960,-30.000 34.640,-40.000" fill="#FFD500" stroke="#222222" stroke-width="1" stroke-linejoin="round"/><polygon points="-17.320,-70.000 0.000,-60.000 -17.320,-50.000 -34.640,-60.000" fill="#009B48" stroke="#222222" stroke-width="1" stroke-linejoin="round"/><polygon points="0.000,-60.000 17.320,-50.000 0.000,-40.000 -17.320,-50.000" fill="#FFD500" stroke="#222222" stroke-width="1" stroke-linejoin="round"/><polygon points="17.320,-50.000 34.640,-40.000 17.320,-30.000 0.000,-40.000" fill="#FFD500" stroke="#222222" stroke-width="1" stroke-linejoin="round"/><polygon points="34.640,-40.000 51.960,-30.000 34.640,-20.000 17.320,-30.000" fill="#FFFFFF" stroke="#222222" stroke-width="1" stroke-linejoin="round"/><polygon points="-34.640,-60.000 -17.320,-50.000 -34.640,-40.000 -51.960,-50.000" fill="#009B48" stroke="#222222" stroke-width="1" stroke-linejoin="round"/><polygon points="-17.320,-50.000 0.000,-40.000 -17.320,-30.000 -34.640,-40.000" fill="#FFD500" stroke="#222222" stroke-width="1" stroke-linejoin="round"/><polygon points="0.000,-40.000 17.320,-30.000 0.000,-20.000 -17.320,-30.000" fill="#FFD500" stroke="#222222" stroke-width="1" stroke-linejoin="round"/><polygon points="17.320,-30.000 34.640,-20.000 17.320,-10.000 0.000,-20.000" fill="#FFFFFF" stroke="#222222" stroke-width="1" stroke-linejoin="round"/><polygon points="-51.960,-50.000 -34.640,-40.000 -51.960,-30.000 -69.280,-40.000" fill="#FFD500" stroke="#222222" stroke-width="1" stroke-linejoin="round"/><polygon points="-34.640,-40.000 -17.320,-30.000 -34.640,-20.000 -51.960,-30.000" fill="#009B48" stroke="#222222" stroke-width="1" stroke-linejoin="round"/><polygon points="-17.320,-30.000 0.000,-20.000 -17.320,-10.000 -34.640,-20.000" fill="#009B48" stroke="#222222" stroke-width="1" stroke-linejoin="round"/><polygon points="0.000,-20.000 17.320,-10.000 0.000,0.000 -17.320,-10.000" fill="#FF5800" stroke="#222222" stroke-width="1" stroke-linejoin="round"/><polygon points="-69.280,-40.000 -51.960,-30.000 -51.960,-10.000 -69.280,-20.000" fill="#FF5800" stroke="#222222" stroke-width="1" stroke-linejoin="round"/><polygon points="-51.960,-30.000 -34.640,-20.000 -34.640,0.000 -51.960,-10.000" fill="#B71234" stroke="#222222" stroke-width="1" stroke-linejoin="round"/><polygon points="-34.640,-20.000 -17.320,-10.000 -17.320,10.000 -34.640,0.000" fill="#B71234" stroke="#222222" stroke-width="1" stroke-linejoin="round"/><polygon points="-17.320,-10.000 0.000,0.000 0.000,20.000 -17.320,10.000" fill="#009B48" stroke="#222222" stroke-width="1" stroke-linejoin="round"/><polygon points="-69.280,-20.000 -51.960,-10.000 -51.960,10.000 -69.280,0.000" fill="#FFFFFF" stroke="#222222" stroke-width="1" stroke-linejoin="round"/><polygon points="-51.960,-10.000 -34.640,0.000 -34.640,20.000 -51.960,10.000" fill="#009B48" stroke="#222222" stroke-width="1" stroke-linejoin="round"/><polygon points="-34.640,0.000 -17.320,10.000 -17.320,30.000 -34.640,20.000" fill="#009B48" stroke="#222222" stroke-width="1" stroke-linejoin="round"/><polygon points="-17.320,10.000 0.000,20.000 0.000,40.000 -17.320,30.000" fill="#FFD500" stroke="#222222" stroke-width="1" stroke-linejoin="round"/><polygon points="-69.280,0.000 -51.960,10.000 -51.960,30.000 -69.280,20.000" fill="#FFFFFF" stroke="#222222" stroke-width="1" stroke-linejoin="round"/><polygon points="-51.960,10.000 -34.640,20.000 -34.640,40.000 -51.960,30.000" fill="#009B48" stroke="#222222" stroke-width="1" stroke-linejoin="round"/><polygon points="-34.640,20.000 -17.320,30.000 -17.320,50.000 -34.640,40.000" fill="#009B48" stroke="#222222" stroke-width="1" stroke-linejoin="round"/><polygon points="-17.320,30.000 0.000,40.000 0.000,60.000 -17.320,50.000" fill="#FFD500" stroke="#222222" stroke-width="1" stroke-linejoin="round"/><polygon points="-69.280,20.000 -51.960,30.000 -51.960,50.000 -69.280,40.000" fill="#009B48" stroke="#222222" stroke-width="1" stroke-linejoin="round"/><polygon points="-51.960,30.000 -34.640,40.000 -34.640,60.000 -51.960,50.000" fill="#FF5800" stroke="#222222" stroke-width="1" stroke-linejoin="round"/><polygon points="-34.640,40.000 -17.320,50.000 -17.320,70.000 -34.640,60.000" fill="#FF5800" stroke="#222222" stroke-width="1" stroke-linejoin="round"/><polygon points="-17.320,50.000 0.000,60.000 0.000,80.000 -17.320,70.000" fill="#B71234" stroke="#222222" stroke-width="1" stroke-linejoin="round"/><polygon points="69.280,-40.000 51.960,-30.000 51.960,-10.000 69.280,-20.000" fill="#FFFFFF" stroke="#222222" stroke-width="1" stroke-linejoin="round"/><polygon points="51.960,-30.000 34.640,-20.000 34.640,0.000 51.960,-10.000" fill="#0046AD" stroke="#222222" stroke-width="1" stroke-linejoin="round"/><polygon points="34.640,-20.000 17.320,-10.000 17.320,10.000 34.640,0.000" fill="#0046AD" stroke="#222222" stroke-width="1" stroke-linejoin="round"/><polygon points="17.320,-10.000 0.000,0.000 0.000,20.000 17.320,10.000" fill="#0046AD" stroke="#222222" stroke-width="1" stroke-linejoin="round"/><polygon points="69.280,-20.000 51.960,-10.000 51.960,10.000 69.280,0.000" fill="#009B48" stroke="#222222" stroke-width="1" stroke-linejoin="round"/><polygon points="51.960,-10.000 34.640,0.000 34.640,20.000 51.960,10.000" fill="#FF5800" stroke="#222222" stroke-width="1" stroke-linejoin="round"/><polygon points="34.640,0.000 17.320,10.000 17.320,30.000 34.640,20.000" fill="#FF5800" stroke="#222222" stroke-width="1" stroke-linejoin="round"/><polygon points="17.320,10.000 0.000,20.000 0.000,40.000 17.320,30.000" fill="#0046AD" stroke="#222222" stroke-width="1" stroke-linejoin="round"/><polygon points="69.280,0.000 51.960,10.000 51.960,30.000 69.280,20.000" fill="#009B48" stroke="#222222" stroke-width="1" stroke-linejoin="round"/><polygon points="51.960,10.000 34.640,20.000 34.640,40.000 51.960,30.000" fill="#FF5800" stroke="#222222" stroke-width="1" stroke-linejoin="round"/><polygon points="34.640,20.000 17.320,30.000 17.320,50.000 34.640,40.000" fill="#FF5800" stroke="#222222" stroke-width="1" stroke-linejoin="round"/><polygon points="17.320,30.000 0.000,40.000 0.000,60.000 17.320,50.000" fill="#0046AD" stroke="#222222" stroke-width="1" stroke-linejoin="round"/><polygon points="69.280,20.000 51.960,30.000 51.960,50.000 69.280,40.000" fill="#009B48" stroke="#222222" stroke-width="1" stroke-linejoin="round"/><polygon points="51.960,30.000 34.640,40.000 34.640,60.000 51.960,50.000" fill="#FFD500" stroke="#222222" stroke-width="1" stroke-linejoin="round"/><polygon points="34.640,40.000 17.320,50.000 17.320,70.000 34.640,60.000" fill="#FFD500" stroke="#222222" stroke-width="1" stroke-linejoin="round"/><polygon points="17.320,50.000 0.000,60.000 0.000,80.000 17.320,70.000" fill="#FFFFFF" stroke="#222222" stroke-width="1" stroke-linejoin="round"/></svg>